<?xml version="1.0" standalone="no"?>
<!DOCTYPE svg PUBLIC "-//W3C//DTD SVG 20010904//EN"
 "http://www.w3.org/TR/2001/REC-SVG-20010904/DTD/svg10.dtd">
<svg version="1.0" xmlns="http://www.w3.org/2000/svg"
 width="400.000000pt" height="400.000000pt" viewBox="0 0 400.000000 400.000000"
 preserveAspectRatio="xMidYMid meet">
<metadata>
Created by potrace 1.11, written by Peter Selinger 2001-2013
</metadata>
<g transform="translate(0.000000,400.000000) scale(0.100000,-0.100000)"
fill="#000000" stroke="none">
<path d="M742 2609 c-104 -22 -143 -168 -65 -246 107 -106 290 8 243 153 -23
68 -101 109 -178 93z m83 -94 c30 -29 32 -64 5 -93 -55 -59 -147 8 -109 79 10
20 41 37 67 38 7 1 24 -10 37 -24z"/>
<path d="M465 2442 c-30 -6 -63 -41 -76 -79 -28 -86 71 -169 151 -128 118 61
55 235 -75 207z m54 -86 c16 -19 -4 -59 -26 -54 -26 5 -39 34 -24 52 17 20 35
20 50 2z"/>
<path d="M1674 2225 c-44 -19 -72 -51 -83 -93 -5 -20 -9 -152 -9 -292 l0 -255
54 -1 c32 0 54 4 55 10 0 6 0 124 0 262 0 248 1 252 22 263 12 6 78 12 147 13
l124 3 -1 28 c-1 15 -1 38 -2 51 l-1 24 -139 -1 c-88 0 -149 -4 -167 -12z"/>
<path d="M2597 2232 c-17 -3 -18 -20 -15 -282 l3 -278 25 -27 c33 -36 66 -52
122 -59 43 -6 47 -5 50 16 2 13 1 39 0 59 -3 31 -7 36 -27 33 -13 -1 -33 5
-44 13 -20 14 -21 22 -21 269 0 235 -1 254 -17 255 -10 0 -27 2 -38 3 -11 1
-28 0 -38 -2z"/>
<path d="M3437 2232 l-28 -3 3 -272 c3 -266 3 -273 26 -305 41 -57 70 -65 227
-66 165 0 195 10 232 82 19 38 21 58 20 155 -2 96 -5 117 -24 148 -36 57 -78
70 -213 67 l-115 -3 -1 -40 c-1 -66 -2 -65 116 -65 74 0 111 -4 117 -12 6 -7
10 -56 9 -108 -1 -116 -1 -117 -152 -115 -87 2 -109 5 -119 18 -9 12 -12 84
-11 258 1 132 -1 244 -4 248 -7 11 -49 17 -83 13z"/>
<path d="M319 2191 c0 -3 -2 -100 -3 -216 l-1 -210 -109 -175 c-60 -96 -111
-180 -113 -187 -4 -9 80 -12 376 -12 210 0 381 2 381 5 0 3 -5 10 -10 17 -6 7
-58 90 -117 186 l-106 174 1 208 c1 115 -2 210 -6 210 -4 1 -22 2 -39 4 l-33
2 0 -223 0 -224 31 -50 c17 -28 29 -53 27 -56 -3 -2 -64 -3 -137 -2 l-131 3
33 55 33 55 -1 220 0 219 -37 1 c-21 1 -38 -1 -39 -4z m349 -647 c7 -11 20
-31 28 -46 l15 -28 -245 0 -245 0 27 44 c32 53 27 52 251 50 138 -2 156 -4
169 -20z"/>
<path d="M1099 2018 c0 -13 -2 -35 -3 -50 -2 -32 -16 -29 157 -30 74 -1 111
-5 118 -14 6 -7 10 -56 10 -111 -1 -80 -4 -100 -18 -110 -27 -20 -237 -18
-258 3 -15 16 -13 48 5 67 4 5 57 9 117 9 l110 0 2 54 2 54 -118 0 c-104 0
-123 -3 -157 -23 -54 -30 -78 -78 -73 -143 4 -59 28 -96 77 -120 28 -14 63
-18 170 -18 151 0 181 9 222 66 21 30 23 45 25 152 2 111 1 123 -21 160 -39
67 -61 74 -223 75 -143 2 -143 2 -144 -21z"/>
<path d="M1735 1993 c2 -26 3 -51 4 -55 0 -5 55 -8 121 -8 133 0 120 -8 123
73 l1 32 -126 3 -126 3 3 -48z"/>
<path d="M2099 2033 c-3 -20 1 -86 5 -91 3 -2 62 -5 131 -6 106 -1 129 -4 139
-18 16 -22 14 -192 -4 -212 -10 -13 -36 -16 -128 -16 -128 0 -153 10 -144 55
6 32 26 37 143 37 l99 -1 -2 54 -2 55 -116 -1 c-141 -1 -181 -17 -211 -82 -37
-82 -14 -157 61 -201 30 -18 52 -20 170 -20 149 -1 180 9 224 67 19 26 21 42
21 160 0 121 -2 135 -22 163 -39 54 -74 64 -227 64 -75 0 -137 -3 -137 -7z"/>
<path d="M2930 1991 c0 -34 4 -51 13 -52 6 0 62 -1 122 -1 154 1 155 0 152
-128 -2 -77 -6 -103 -17 -110 -20 -13 -227 -13 -251 0 -23 13 -25 52 -4 70 10
8 50 12 120 12 l105 -1 0 55 0 56 -122 -4 c-98 -2 -129 -7 -154 -22 -96 -58
-90 -211 9 -263 34 -17 227 -26 300 -12 42 7 81 38 105 84 23 45 20 232 -5
282 -35 70 -55 78 -224 81 l-149 3 0 -50z"/>
</g>
</svg>
